<svg height="480pt" viewBox="0 0 480 480" width="480pt" xmlns="http://www.w3.org/2000/svg" xmlns:xlink="http://www.w3.org/1999/xlink"><linearGradient id="a"><stop offset="0" stop-color="#00a2cc"/><stop offset="1" stop-color="#2b32b2"/></linearGradient><linearGradient id="b" gradientUnits="userSpaceOnUse" x1="-8" x2="468.32" xlink:href="#a" y1="424" y2="424"/><linearGradient id="c" gradientUnits="userSpaceOnUse" x1="-8" x2="468.32" xlink:href="#a" y1="104" y2="104"/><linearGradient id="d" gradientUnits="userSpaceOnUse" x1="-8" x2="468.32" xlink:href="#a" y1="168" y2="168"/><linearGradient id="e" gradientUnits="userSpaceOnUse" x1="-8" x2="468.32" xlink:href="#a" y1="176" y2="176"/><linearGradient id="f" gradientUnits="userSpaceOnUse" x1="-8" x2="468.32" xlink:href="#a" y1="160.312" y2="160.312"/><linearGradient id="g" gradientUnits="userSpaceOnUse" x1="-8" x2="468.32" xlink:href="#a" y1="96.616" y2="96.616"/><path d="m472 416h-128v-40c0-4.417969-3.582031-8-8-8h-192c-4.417969 0-8 3.582031-8 8v40h-128c-4.417969 0-8 3.582031-8 8v48c0 4.417969 3.582031 8 8 8h464c4.417969 0 8-3.582031 8-8v-48c0-4.417969-3.582031-8-8-8zm-320-32h176v32h-176zm312 80h-384v-8c0-4.417969-3.582031-8-8-8s-8 3.582031-8 8v8h-16v-8c0-4.417969-3.582031-8-8-8s-8 3.582031-8 8v8h-16v-32h448zm0 0" fill="url(#b)"/><path d="m280 80h-80c-4.417969 0-8 3.582031-8 8v32c0 4.417969 3.582031 8 8 8h80c4.417969 0 8-3.582031 8-8v-32c0-4.417969-3.582031-8-8-8zm-8 32h-64v-16h64zm0 0" fill="url(#c)"/><path d="m280 144h-80c-4.417969 0-8 3.582031-8 8v32c0 4.417969 3.582031 8 8 8h80c4.417969 0 8-3.582031 8-8v-32c0-4.417969-3.582031-8-8-8zm-8 32h-64v-16h64zm0 0" fill="url(#d)"/><path d="m472 48h-80c-4.417969 0-8 3.582031-8 8v40h-64v-56c-.027344-22.082031-17.917969-39.9726562-40-40h-80c-22.082031.0273438-39.972656 17.917969-40 40v176c.027344 22.082031 17.917969 39.972656 40 40h8v24c0 13.253906 10.746094 24 24 24v40c0 4.417969 3.582031 8 8 8s8-3.582031 8-8v-40c13.253906 0 24-10.746094 24-24v-24h8c22.082031-.027344 39.972656-17.917969 40-40v-40h136c4.417969 0 8-3.582031 8-8v-40h8c4.417969 0 8-3.582031 8-8v-64c0-4.417969-3.582031-8-8-8zm-80 64c4.417969 0 8-3.582031 8-8v-40h64v16h-40c-4.417969 0-8 3.582031-8 8v40h-96v-16zm-216-48h128v144h-128zm24-48h32v8c0 4.417969 3.582031 8 8 8s8-3.582031 8-8v-8h16v8c0 4.417969 3.582031 8 8 8s8-3.582031 8-8v-8c13.253906 0 24 10.746094 24 24v8h-128v-8c0-13.253906 10.746094-24 24-24zm56 264c0 4.417969-3.582031 8-8 8h-16c-4.417969 0-8-3.582031-8-8v-24h32zm24-40h-80c-10.132812-.042969-19.148438-6.445312-22.527344-16h125.054688c-3.378906 9.554688-12.394532 15.957031-22.527344 16zm184-128h-8c-4.417969 0-8 3.582031-8 8v40h-128v-16h104c4.417969 0 8-3.582031 8-8v-40h32zm0 0" fill="url(#e)"/><path d="m128 96.617188v127.382812c0 4.417969 3.582031 8 8 8s8-3.582031 8-8v-127.382812c0-4.417969-3.582031-8-8-8s-8 3.582031-8 8zm0 0" fill="url(#f)"/><path d="m96 40v113.230469c0 4.417969 3.582031 8 8 8s8-3.582031 8-8v-113.230469c0-4.417969-3.582031-8-8-8s-8 3.582031-8 8zm0 0" fill="url(#g)"/></svg>