<svg id="_x33_d-print" enable-background="new 0 0 300 300" height="512" viewBox="0 0 300 300" width="512" xmlns="http://www.w3.org/2000/svg" xmlns:xlink="http://www.w3.org/1999/xlink"><linearGradient id="SVGID_1_" gradientUnits="userSpaceOnUse" x1="44.999" x2="254.657" y1="241.829" y2="32.171"><stop offset="0" stop-color="#107eff"/><stop offset="1" stop-color="#8f16ff"/></linearGradient><g><path d="m234.828 126c0-6.617-5.383-12-12-12s-12 5.383-12 12 5.383 12 12 12 12-5.383 12-12zm-12 4c-2.205 0-4-1.793-4-4s1.795-4 4-4 4 1.793 4 4-1.795 4-4 4zm-128 20c0-2.209 1.791-4 4-4s4 1.791 4 4-1.791 4-4 4-4-1.791-4-4zm128 28c2.209 0 4 1.791 4 4s-1.791 4-4 4-4-1.791-4-4 1.791-4 4-4zm-175.516 13.172-2.828 2.828 2.828 2.828c1.562 1.562 1.562 4.094 0 5.656-.781.781-1.805 1.172-2.828 1.172s-2.047-.391-2.828-1.172l-2.828-2.828-2.828 2.828c-.781.781-1.805 1.172-2.828 1.172s-2.047-.391-2.828-1.172c-1.562-1.562-1.562-4.094 0-5.656l2.828-2.828-2.828-2.828c-1.562-1.562-1.562-4.094 0-5.656s4.094-1.562 5.656 0l2.828 2.828 2.828-2.828c1.562-1.562 4.094-1.562 5.656 0s1.563 4.093 0 5.656zm91.516 50.828v-8h-8c-2.209 0-4-1.789-4-4s1.791-4 4-4h8v-4h-12c-2.209 0-4-1.789-4-4s1.791-4 4-4h13.547c3.559 0 6.453 2.895 6.453 6.453v7.094c0 .869-.177 1.696-.49 2.453.313.757.49 1.584.49 2.453v11.094c0 3.559-2.895 6.453-6.453 6.453h-13.547c-2.209 0-4-1.789-4-4s1.791-4 4-4zm16 8h10.682c7.344 0 13.318-5.973 13.318-13.316v-9.367c0-7.344-5.975-13.316-13.318-13.316h-10.682c-2.209 0-4 1.789-4 4v28c0 2.21 1.791 3.999 4 3.999zm4-28h6.682c2.932 0 5.318 2.387 5.318 5.316v9.367c0 2.93-2.387 5.316-5.318 5.316h-6.682zm108-176h-52v-4c0-2.211-1.791-4-4-4h-120c-2.209 0-4 1.789-4 4v4h-52c-2.209 0-4 1.789-4 4v16c0 2.211 1.791 4 4 4h52v16c0 2.211 1.791 4 4 4h17.292l6.995 17.484c.607 1.52 2.078 2.516 3.713 2.516v20c0 1.168.51 2.277 1.396 3.035l26.604 22.803v20.162c0 3.309-2.691 6-6 6h-36c-7.719 0-14 6.281-14 14s6.281 14 14 14h2.883c-.552 1.413-.883 2.937-.883 4.543v34.914c0 1.606.331 3.13.883 4.543h-40.883c-2.209 0-4 1.789-4 4s1.791 4 4 4h164c2.209 0 4-1.789 4-4s-1.791-4-4-4h-24.883c.552-1.413.883-2.937.883-4.543v-34.914c0-6.918-5.627-12.543-12.543-12.543h-89.457c-3.309 0-6-2.691-6-6s2.691-6 6-6h36c7.719 0 14-6.281 14-14v-20.162l26.604-22.803c.887-.758 1.396-1.867 1.396-3.035v-20c1.635 0 3.107-.996 3.715-2.516l6.993-17.484h17.292c2.209 0 4-1.789 4-4v-16h52c2.209 0 4-1.789 4-4v-16c0-2.211-1.791-4-4-4zm-141.726 164h53.184c2.506 0 4.543 2.039 4.543 4.543v34.914c0 2.504-2.037 4.543-4.543 4.543h-58.914c-2.506 0-4.543-2.039-4.543-4.543v-34.914c0-2.504 2.037-4.543 4.543-4.543zm-86.274-148v-8h48v8zm136 66.16-24 20.57-24-20.57v-18.16h48zm32-46.16h-112v-36h112zm56-20h-48v-8h48zm-160 12h16c2.209 0 4-1.789 4-4v-16c0-2.211-1.791-4-4-4h-16c-2.209 0-4 1.789-4 4v16c0 2.211 1.791 4 4 4zm4-16h8v8h-8zm24 16h16c2.209 0 4-1.789 4-4v-16c0-2.211-1.791-4-4-4h-16c-2.209 0-4 1.789-4 4v16c0 2.211 1.791 4 4 4zm4-16h8v8h-8z" fill="url(#SVGID_1_)"/></g></svg>