<svg height="480pt" viewBox="0 0 480 480" width="480pt" xmlns="http://www.w3.org/2000/svg"><path d="m240 352c-4.417969 0-8-3.582031-8-8v-48c0-4.417969 3.582031-8 8-8s8 3.582031 8 8v48c0 4.417969-3.582031 8-8 8zm0 0" fill="#394d5c"/><path d="m200 8h80c17.671875 0 32 14.328125 32 32v176c0 17.671875-14.328125 32-32 32h-80c-17.671875 0-32-14.328125-32-32v-176c0-17.671875 14.328125-32 32-32zm0 0" fill="#195c85"/><path d="m216 248h48v32c0 8.835938-7.164062 16-16 16h-16c-8.835938 0-16-7.164062-16-16zm0 0" fill="#aabece"/><path d="m168 56h144v160h-144zm0 0" fill="#e97424"/><path d="m8 424h464v48h-464zm0 0" fill="#195c85"/><g fill="#aabece"><path d="m144 376h192v48h-192zm0 0"/><path d="m32 456h16v16h-16zm0 0"/><path d="m64 456h16v16h-16zm0 0"/><path d="m264 8h16v16h-16zm0 0"/><path d="m232 8h16v16h-16zm0 0"/></g><path d="m200 88h80v32h-80zm0 0" fill="#fcf05a"/><path d="m200 152h80v32h-80zm0 0" fill="#fcf05a"/><path d="m472 56h-80v48h-80v32h112v-48h48zm0 0" fill="#7d8d9c"/><path d="m472 88h-48v48h-112v32h144v-48h16zm0 0" fill="#aabece"/><path d="m136 232c-4.417969 0-8-3.582031-8-8v-127.382812c0-4.417969 3.582031-8 8-8s8 3.582031 8 8v127.382812c0 4.417969-3.582031 8-8 8zm0 0" fill="#7d8d9c"/><path d="m104 161.230469c-4.417969 0-8-3.582031-8-8v-113.230469c0-4.417969 3.582031-8 8-8s8 3.582031 8 8v113.230469c0 4.417969-3.582031 8-8 8zm0 0" fill="#7d8d9c"/><path d="m472 416h-128v-40c0-4.417969-3.582031-8-8-8h-192c-4.417969 0-8 3.582031-8 8v40h-128c-4.417969 0-8 3.582031-8 8v48c0 4.417969 3.582031 8 8 8h464c4.417969 0 8-3.582031 8-8v-48c0-4.417969-3.582031-8-8-8zm-320-32h176v32h-176zm312 80h-384v-8c0-4.417969-3.582031-8-8-8s-8 3.582031-8 8v8h-16v-8c0-4.417969-3.582031-8-8-8s-8 3.582031-8 8v8h-16v-32h448zm0 0"/><path d="m280 80h-80c-4.417969 0-8 3.582031-8 8v32c0 4.417969 3.582031 8 8 8h80c4.417969 0 8-3.582031 8-8v-32c0-4.417969-3.582031-8-8-8zm-8 32h-64v-16h64zm0 0"/><path d="m280 144h-80c-4.417969 0-8 3.582031-8 8v32c0 4.417969 3.582031 8 8 8h80c4.417969 0 8-3.582031 8-8v-32c0-4.417969-3.582031-8-8-8zm-8 32h-64v-16h64zm0 0"/><path d="m472 48h-80c-4.417969 0-8 3.582031-8 8v40h-64v-56c-.027344-22.082031-17.917969-39.9726562-40-40h-80c-22.082031.0273438-39.972656 17.917969-40 40v176c.027344 22.082031 17.917969 39.972656 40 40h8v24c0 13.253906 10.746094 24 24 24v40c0 4.417969 3.582031 8 8 8s8-3.582031 8-8v-40c13.253906 0 24-10.746094 24-24v-24h8c22.082031-.027344 39.972656-17.917969 40-40v-40h136c4.417969 0 8-3.582031 8-8v-40h8c4.417969 0 8-3.582031 8-8v-64c0-4.417969-3.582031-8-8-8zm-80 64c4.417969 0 8-3.582031 8-8v-40h64v16h-40c-4.417969 0-8 3.582031-8 8v40h-96v-16zm-216-48h128v144h-128zm24-48h32v8c0 4.417969 3.582031 8 8 8s8-3.582031 8-8v-8h16v8c0 4.417969 3.582031 8 8 8s8-3.582031 8-8v-8c13.253906 0 24 10.746094 24 24v8h-128v-8c0-13.253906 10.746094-24 24-24zm56 264c0 4.417969-3.582031 8-8 8h-16c-4.417969 0-8-3.582031-8-8v-24h32zm24-40h-80c-10.132812-.042969-19.148438-6.445312-22.527344-16h125.054688c-3.378906 9.554688-12.394532 15.957031-22.527344 16zm184-128h-8c-4.417969 0-8 3.582031-8 8v40h-128v-16h104c4.417969 0 8-3.582031 8-8v-40h32zm0 0"/><path d="m128 96.617188v127.382812c0 4.417969 3.582031 8 8 8s8-3.582031 8-8v-127.382812c0-4.417969-3.582031-8-8-8s-8 3.582031-8 8zm0 0"/><path d="m96 40v113.230469c0 4.417969 3.582031 8 8 8s8-3.582031 8-8v-113.230469c0-4.417969-3.582031-8-8-8s-8 3.582031-8 8zm0 0"/></svg>