<?xml version="1.0" encoding="iso-8859-1"?>
<!-- Generator: Adobe Illustrator 19.0.0, SVG Export Plug-In . SVG Version: 6.00 Build 0)  -->
<svg version="1.1" id="Capa_1" xmlns="http://www.w3.org/2000/svg" xmlns:xlink="http://www.w3.org/1999/xlink" x="0px" y="0px"
	 viewBox="0 0 512 512" style="enable-background:new 0 0 512 512;" xml:space="preserve">
<polygon style="fill:#62CD4D;" points="256,57.392 84.643,156.333 85.286,356.041 256.643,453.908 428,355.304 428,156.696 "/>
<polygon style="fill:#A0E557;" points="84,355.304 256.466,453.81 255.823,256 84,156.696 "/>
<polygon style="fill:#D8FB93;" points="84,156.696 256,256 428,156.696 256,57.392 "/>
<circle style="fill:#FFFFFF;" cx="256" cy="256" r="108"/>
<path d="M481.146,396.33c1.558,0.883,3.251,1.302,4.922,1.302c3.483,0,6.868-1.824,8.709-5.071
	c2.723-4.806,1.035-10.908-3.77-13.631L438,348.892v-52.559c0-5.522-4.478-10-10-10s-10,4.478-10,10v41.225l-23.25-13.175
	c-4.804-2.722-10.907-1.035-13.631,3.77c-2.723,4.806-1.035,10.908,3.77,13.631l23.483,13.307L266,437.288v-63.716
	c60.402-5.094,108-55.875,108-117.572c0-17.911-4.019-34.898-11.19-50.12L418,174.016V215c0,5.522,4.478,10,10,10s10-4.478,10-10
	v-58.305c0-3.572-1.906-6.874-5-8.66L266,51.618V10c0-5.522-4.478-10-10-10s-10,4.478-10,10v41.618L79,148.035
	c-3.094,1.786-5,5.088-5,8.66v61.304c0,5.522,4.478,10,10,10s10-4.478,10-10v-43.965l55.144,31.944
	C142.001,221.175,138,238.128,138,256c0,61.697,47.598,112.479,108,117.572v63.716l-141.896-81.924l15.179-8.8
	c4.778-2.771,6.405-8.889,3.636-13.667c-2.771-4.777-8.89-6.404-13.667-3.636L94,338.104V291c0-5.522-4.478-10-10-10
	s-10,4.478-10,10v58.699l-44.242,25.65c-4.778,2.771-6.405,8.889-3.636,13.667c1.855,3.199,5.211,4.986,8.661,4.986
	c1.702,0,3.428-0.436,5.006-1.351l44.356-25.716L251,463.269c1.547,0.894,3.273,1.34,5,1.34c1.727,0,3.453-0.446,5-1.34
	l167.558-96.739L481.146,396.33z M103.985,156.704L246,74.712v31.275c0,5.522,4.478,10,10,10s10-4.478,10-10V74.712l142,81.984
	l-55.218,31.88C331.435,158.025,296.015,138,256,138c-40.053,0-75.503,20.064-96.844,50.665L103.985,156.704z M158,256
	c0-54.037,43.963-98,98-98s98,43.963,98,98s-43.963,98-98,98S158,310.037,158,256z"/>
<path d="M502,246c-2.63,0-5.21,1.069-7.07,2.93S492,253.37,492,256s1.069,5.21,2.93,7.069c1.86,1.86,4.44,2.931,7.07,2.931
	s5.21-1.07,7.069-2.931C510.93,261.21,512,258.63,512,256s-1.07-5.21-2.931-7.07C507.21,247.069,504.63,246,502,246z"/>
<path d="M471.52,263.069c1.87-1.859,2.931-4.439,2.931-7.069s-1.061-5.21-2.931-7.07c-1.859-1.86-4.43-2.93-7.06-2.93
	c-2.641,0-5.21,1.069-7.08,2.93c-1.86,1.86-2.93,4.44-2.93,7.07s1.069,5.2,2.93,7.069c1.87,1.86,4.439,2.931,7.08,2.931
	C467.09,266,469.67,264.93,471.52,263.069z"/>
<path d="M428,246c-2.63,0-5.21,1.069-7.07,2.93S418,253.37,418,256s1.069,5.21,2.93,7.069c1.86,1.86,4.44,2.931,7.07,2.931
	s5.21-1.07,7.069-2.931C436.93,261.21,438,258.63,438,256s-1.07-5.21-2.931-7.07C433.21,247.069,430.63,246,428,246z"/>
<path d="M84,266c2.63,0,5.21-1.07,7.069-2.931C92.93,261.21,94,258.63,94,256s-1.07-5.21-2.931-7.07C89.21,247.069,86.63,246,84,246
	s-5.21,1.069-7.07,2.93S74,253.37,74,256s1.069,5.21,2.93,7.069C78.79,264.93,81.37,266,84,266z"/>
<path d="M39.38,248.93c-1.86,1.86-2.93,4.44-2.93,7.07s1.069,5.21,2.93,7.069c1.87,1.86,4.439,2.931,7.07,2.931
	c2.64,0,5.21-1.07,7.08-2.931c1.859-1.859,2.93-4.439,2.93-7.069s-1.07-5.21-2.93-7.07c-1.87-1.86-4.44-2.93-7.08-2.93
	C43.819,246,41.25,247.069,39.38,248.93z"/>
<path d="M10,266c2.63,0,5.21-1.07,7.069-2.931C18.93,261.21,20,258.63,20,256s-1.07-5.21-2.931-7.07C15.21,247.069,12.63,246,10,246
	s-5.21,1.069-7.07,2.93S0,253.37,0,256s1.069,5.21,2.93,7.069C4.79,264.93,7.37,266,10,266z"/>
<path d="M223.816,236.742l11.673-11.672c2.859-2.86,3.715-7.161,2.168-10.898c-1.548-3.736-5.194-6.173-9.239-6.173h-32.832
	c-5.522,0-10,4.478-10,10s4.478,10,10,10h8.689l-10.933,10.933c-2.859,2.86-3.715,7.161-2.168,10.898
	c1.548,3.736,5.194,6.173,9.239,6.173h16.332c7.719,0,13.999,6.28,13.999,13.999s-6.28,13.999-13.999,13.999
	s-13.999-6.28-13.999-13.999c0-5.522-4.478-10-10-10s-10,4.478-10,10c0,18.747,15.252,33.999,33.999,33.999
	s33.999-15.252,33.999-33.999C250.745,253.679,239.183,240.005,223.816,236.742z"/>
<path d="M271.255,304.001h9.997c26.468,0,48.001-21.532,48.001-48c0-26.466-21.531-47.998-47.996-48.001l-10.001-0.001h-0.001
	c-2.651,0-5.195,1.054-7.07,2.929c-1.876,1.875-2.93,4.419-2.93,7.071v76.002C261.255,299.523,265.732,304.001,271.255,304.001z
	 M281.255,228c15.438,0.001,27.998,12.563,27.998,28.001s-12.56,27.998-27.998,28V228z"/>
<path d="M10,94.063c5.522,0,10-4.478,10-10V20h64.063c5.522,0,10-4.478,10-10s-4.478-10-10-10H10C4.478,0,0,4.478,0,10v74.063
	C0,89.586,4.478,94.063,10,94.063z"/>
<path d="M502,0h-74.063c-5.522,0-10,4.478-10,10s4.478,10,10,10H492v64.063c0,5.522,4.478,10,10,10s10-4.478,10-10V10
	C512,4.478,507.522,0,502,0z"/>
<path d="M502,417.937c-5.522,0-10,4.478-10,10V492h-64.063c-5.522,0-10,4.478-10,10s4.478,10,10,10H502c5.522,0,10-4.478,10-10
	v-74.063C512,422.414,507.522,417.937,502,417.937z"/>
<path d="M84.063,492H20v-64.063c0-5.522-4.478-10-10-10s-10,4.478-10,10V502c0,5.522,4.478,10,10,10h74.063c5.522,0,10-4.478,10-10
	S89.586,492,84.063,492z"/>
<g>
</g>
<g>
</g>
<g>
</g>
<g>
</g>
<g>
</g>
<g>
</g>
<g>
</g>
<g>
</g>
<g>
</g>
<g>
</g>
<g>
</g>
<g>
</g>
<g>
</g>
<g>
</g>
<g>
</g>
</svg>
