<svg id="_x33_d-print" enable-background="new 0 0 300 300" height="512" viewBox="0 0 300 300" width="512" xmlns="http://www.w3.org/2000/svg"><g><circle cx="168.828" cy="140" fill="#ffe8dc" r="86"/><g fill="#4c241d"><path d="m222.828 138c-6.617 0-12-5.383-12-12s5.383-12 12-12 12 5.383 12 12-5.383 12-12 12zm0-16c-2.205 0-4 1.793-4 4s1.795 4 4 4 4-1.793 4-4-1.795-4-4-4z"/><circle cx="98.828" cy="150" r="4"/><circle cx="222.828" cy="182" r="4"/><path d="m44.484 203.656c-1.023 0-2.047-.391-2.828-1.172l-11.312-11.312c-1.562-1.562-1.562-4.094 0-5.656s4.094-1.562 5.656 0l11.312 11.312c1.562 1.562 1.562 4.094 0 5.656-.781.782-1.804 1.172-2.828 1.172z"/><path d="m33.172 203.656c-1.023 0-2.047-.391-2.828-1.172-1.562-1.562-1.562-4.094 0-5.656l11.312-11.312c1.562-1.562 4.094-1.562 5.656 0s1.562 4.094 0 5.656l-11.312 11.312c-.781.782-1.805 1.172-2.828 1.172z"/></g><g><path d="m194.285 258h-58.914c-4.718 0-8.543-3.825-8.543-8.543v-34.914c0-4.718 3.825-8.543 8.543-8.543h58.914c4.718 0 8.543 3.825 8.543 8.543v34.914c0 4.718-3.825 8.543-8.543 8.543z" fill="#b5a19c"/><path d="m194.285 262h-58.914c-6.916 0-12.543-5.625-12.543-12.543v-34.914c0-6.918 5.627-12.543 12.543-12.543h58.914c6.916 0 12.543 5.625 12.543 12.543v34.914c0 6.918-5.627 12.543-12.543 12.543zm-58.914-52c-2.506 0-4.543 2.039-4.543 4.543v34.914c0 2.504 2.037 4.543 4.543 4.543h58.914c2.506 0 4.543-2.039 4.543-4.543v-34.914c0-2.504-2.037-4.543-4.543-4.543z" fill="#4c241d"/></g><g><path d="m178.285 258h-58.914c-4.718 0-8.543-3.825-8.543-8.543v-34.914c0-4.718 3.825-8.543 8.543-8.543h58.914c4.718 0 8.543 3.825 8.543 8.543v34.914c0 4.718-3.825 8.543-8.543 8.543z" fill="#a9ba5a"/><path d="m178.285 262h-58.914c-6.916 0-12.543-5.625-12.543-12.543v-34.914c0-6.918 5.627-12.543 12.543-12.543h58.914c6.916 0 12.543 5.625 12.543 12.543v34.914c0 6.918-5.627 12.543-12.543 12.543zm-58.914-52c-2.506 0-4.543 2.039-4.543 4.543v34.914c0 2.504 2.037 4.543 4.543 4.543h58.914c2.506 0 4.543-2.039 4.543-4.543v-34.914c0-2.504-2.037-4.543-4.543-4.543z" fill="#4c241d"/></g><path d="m140.375 234h-9.547c-2.209 0-4-1.789-4-4s1.791-4 4-4h8v-4h-12c-2.209 0-4-1.789-4-4s1.791-4 4-4h13.547c3.559 0 6.453 2.895 6.453 6.453v7.094c0 3.558-2.894 6.453-6.453 6.453zm0-12h.039z" fill="#4c241d"/><path d="m140.375 250h-13.547c-2.209 0-4-1.789-4-4s1.791-4 4-4h12v-8h-8c-2.209 0-4-1.789-4-4s1.791-4 4-4h9.547c3.559 0 6.453 2.895 6.453 6.453v11.094c0 3.558-2.894 6.453-6.453 6.453zm0-16h.039z" fill="#4c241d"/><path d="m165.51 250h-10.682c-2.209 0-4-1.789-4-4v-28c0-2.211 1.791-4 4-4h10.682c7.344 0 13.318 5.973 13.318 13.316v9.367c0 7.344-5.974 13.317-13.318 13.317zm-6.682-8h6.682c2.932 0 5.318-2.387 5.318-5.316v-9.367c0-2.93-2.387-5.316-5.318-5.316h-6.682z" fill="#4c241d"/><path d="m125.102 210h-20.273c-7.719 0-14-6.281-14-14s6.281-14 14-14h36c3.309 0 6-2.691 6-6v-22c0-2.211 1.791-4 4-4s4 1.789 4 4v22c0 7.719-6.281 14-14 14h-36c-3.309 0-6 2.691-6 6s2.691 6 6 6h20.273c2.209 0 4 1.789 4 4s-1.791 4-4 4z" fill="#4c241d"/><g><path d="m178.828 130-28 24-28-24v-24h56z" fill="#6b4f5b"/><path d="m150.828 158c-.928 0-1.854-.32-2.604-.965l-28-24c-.887-.758-1.396-1.867-1.396-3.035v-24c0-2.211 1.791-4 4-4h56c2.209 0 4 1.789 4 4v24c0 1.168-.51 2.277-1.396 3.035l-28 24c-.75.645-1.676.965-2.604.965zm-24-29.84 24 20.57 24-20.57v-18.16h-48zm52 1.84h.039z" fill="#4c241d"/></g><g><path d="m182.828 106h-64l-8-20h80z" fill="#b5a19c"/><path d="m182.828 110h-64c-1.635 0-3.105-.996-3.715-2.516l-8-20c-.492-1.23-.342-2.629.402-3.727s1.985-1.757 3.313-1.757h80c1.328 0 2.568.66 3.312 1.758s.895 2.496.402 3.727l-8 20c-.608 1.519-2.079 2.515-3.714 2.515zm-61.291-8h58.582l4.801-12h-68.184z" fill="#4c241d"/></g><g><path d="m90.828 42h120v44h-120z" fill="#6b4f5b"/><path d="m210.828 90h-120c-2.209 0-4-1.789-4-4v-44c0-2.211 1.791-4 4-4h120c2.209 0 4 1.789 4 4v44c0 2.211-1.791 4-4 4zm-116-8h112v-36h-112z" fill="#4c241d"/></g><g><path d="m210.828 50h56v16h-56z" fill="#b5a19c"/><path d="m266.828 70h-56c-2.209 0-4-1.789-4-4v-16c0-2.211 1.791-4 4-4h56c2.209 0 4 1.789 4 4v16c0 2.211-1.791 4-4 4zm-52-8h48v-8h-48z" fill="#4c241d"/></g><g><path d="m34.828 50h56v16h-56z" fill="#b5a19c"/><path d="m90.828 70h-56c-2.209 0-4-1.789-4-4v-16c0-2.211 1.791-4 4-4h56c2.209 0 4 1.789 4 4v16c0 2.211-1.791 4-4 4zm-52-8h48v-8h-48z" fill="#4c241d"/></g><path d="m230.828 262h-164c-2.209 0-4-1.789-4-4s1.791-4 4-4h164c2.209 0 4 1.789 4 4s-1.791 4-4 4z" fill="#4c241d"/><g><path d="m102.828 54h16v16h-16z" fill="#e66353"/><path d="m118.828 74h-16c-2.209 0-4-1.789-4-4v-16c0-2.211 1.791-4 4-4h16c2.209 0 4 1.789 4 4v16c0 2.211-1.791 4-4 4zm-12-8h8v-8h-8z" fill="#4c241d"/></g><g><path d="m130.828 54h16v16h-16z" fill="#2ee52b"/><path d="m146.828 74h-16c-2.209 0-4-1.789-4-4v-16c0-2.211 1.791-4 4-4h16c2.209 0 4 1.789 4 4v16c0 2.211-1.791 4-4 4zm-12-8h8v-8h-8z" fill="#4c241d"/></g></g></svg>