<svg id="Capa_1" enable-background="new 0 0 512.001 512.001" height="512" viewBox="0 0 512.001 512.001" width="512" xmlns="http://www.w3.org/2000/svg"><g><path d="m455.237 7.5h-398.474l-49.263 49.263v447.737h85.349v-30h326.302v30h85.349v-447.737z" fill="#365e7d"/><g><path d="m455.237 7.5h-21.492l38.222 38.221c7.07 7.07 11.042 16.659 11.042 26.657v432.122h21.491v-447.737z" fill="#2b4d66"/></g><path d="m439.21 431.519h-366.42c-6.614-6.614-10.322-10.322-16.936-16.936v-278.462c6.614-6.614 10.322-10.322 16.936-16.936h366.42c6.614 6.614 10.322 10.322 16.936 16.936v278.462c-6.614 6.614-10.322 10.322-16.936 16.936z" fill="#b1e4f9"/><path d="m439.21 119.185h-22.401c6.614 6.614 10.322 10.322 16.936 16.936v278.462c-6.614 6.614-10.322 10.322-16.936 16.936h22.401l16.936-16.936v-278.462c-6.614-6.614-10.322-10.322-16.936-16.936z" fill="#90d8f9"/><path d="m241.044 91.639h-126.57c-5.359 0-9.702-4.344-9.702-9.702v-38.136c0-5.359 4.344-9.702 9.702-9.702h126.57c5.359 0 9.702 4.344 9.702 9.702v38.136c.001 5.358-4.343 9.702-9.702 9.702z" fill="#b1e4f9"/><path d="m241.044 34.099h-18.774c5.359 0 9.703 4.344 9.703 9.703v38.136c0 5.359-4.344 9.702-9.703 9.702h18.774c5.359 0 9.703-4.344 9.703-9.702v-38.137c0-5.358-4.344-9.702-9.703-9.702z" fill="#90d8f9"/><circle cx="379.983" cy="64.855" fill="#e490d0" r="30.756"/><path d="m379.983 34.099c-3.192 0-6.27.487-9.164 1.389 12.51 3.9 21.592 15.573 21.592 29.367s-9.082 25.467-21.592 29.367c2.895.902 5.973 1.389 9.164 1.389 16.986 0 30.756-13.77 30.756-30.756s-13.77-30.756-30.756-30.756z" fill="#df73c1"/><path d="m177.759 168.294h93.402v59.057h-93.402z" fill="#365e7d"/><path d="m254 168.294h17.161v59.057h-17.161z" fill="#2b4d66"/><path d="m243.376 256.485h-37.831l-9.465-29.134h56.76z" fill="#2b4d66"/><path d="m346.841 431.519h-181.682v-19.549c0-5.256 4.261-9.516 9.516-9.516h162.65c5.256 0 9.516 4.261 9.516 9.516z" fill="#7398d3"/><path d="m337.325 402.454h-17.641c5.256 0 9.516 4.261 9.516 9.516v19.548h17.641v-19.548c0-5.255-4.26-9.516-9.516-9.516z" fill="#5986cb"/><path d="m205.685 402.454v-31.701l34.556-30.379 52.784 12.151 13.291 18.889v31.04z" fill="#707dd3"/><path d="m293.025 352.525-52.784-12.151-13.591 11.948 48.663 11.203 13.291 18.889v20.04h17.712v-31.04z" fill="#5766cb"/><g><path d="m379.982 26.598c-21.095 0-38.256 17.162-38.256 38.257s17.161 38.256 38.256 38.256 38.257-17.161 38.257-38.256-17.162-38.257-38.257-38.257zm0 61.513c-12.823 0-23.256-10.433-23.256-23.256 0-12.824 10.433-23.257 23.256-23.257 12.824 0 23.257 10.433 23.257 23.257 0 12.823-10.432 23.256-23.257 23.256z"/><path d="m288.501 60.628h19.913c4.143 0 7.5-3.357 7.5-7.5s-3.357-7.5-7.5-7.5h-19.913c-4.143 0-7.5 3.357-7.5 7.5s3.357 7.5 7.5 7.5z"/><path d="m288.501 84.082h19.913c4.143 0 7.5-3.357 7.5-7.5s-3.357-7.5-7.5-7.5h-19.913c-4.143 0-7.5 3.357-7.5 7.5s3.357 7.5 7.5 7.5z"/><path d="m142.569 55.369h-7.716c-4.143 0-7.5 3.357-7.5 7.5s3.357 7.5 7.5 7.5h7.716c4.143 0 7.5-3.357 7.5-7.5s-3.357-7.5-7.5-7.5z"/><path d="m220.665 70.369c4.143 0 7.5-3.357 7.5-7.5s-3.357-7.5-7.5-7.5h-55.245c-4.143 0-7.5 3.357-7.5 7.5s3.357 7.5 7.5 7.5z"/><path d="m157.563 99.139h83.48c9.486 0 17.203-7.717 17.203-17.202v-38.136c0-9.485-7.717-17.202-17.203-17.202h-126.568c-9.485 0-17.203 7.717-17.203 17.202v38.136c0 9.485 7.718 17.202 17.203 17.202h13.102c4.143 0 7.5-3.357 7.5-7.5s-3.357-7.5-7.5-7.5h-13.102c-1.215 0-2.203-.988-2.203-2.202v-38.136c0-1.214.988-2.202 2.203-2.202h126.569c1.215 0 2.203.988 2.203 2.202v38.136c0 1.214-.988 2.202-2.203 2.202h-83.48c-4.143 0-7.5 3.357-7.5 7.5s3.357 7.5 7.499 7.5z"/><path d="m509.805 51.459-49.264-49.262c-1.407-1.406-3.314-2.197-5.304-2.197h-49.465c-4.143 0-7.5 3.357-7.5 7.5s3.357 7.5 7.5 7.5h46.358l44.87 44.869v437.131h-70.35v-22.5c0-4.143-3.357-7.5-7.5-7.5h-326.301c-4.143 0-7.5 3.357-7.5 7.5v22.5h-70.349v-437.13l44.869-44.87h315.916c4.143 0 7.5-3.357 7.5-7.5s-3.357-7.5-7.5-7.5h-319.022c-1.989 0-3.896.79-5.304 2.196l-49.263 49.263c-1.406 1.408-2.196 3.315-2.196 5.304v447.737c0 4.143 3.357 7.5 7.5 7.5h85.349c4.143 0 7.5-3.357 7.5-7.5v-22.5h311.303v22.5c0 4.143 3.357 7.5 7.5 7.5h85.35c4.143 0 7.5-3.357 7.5-7.5v-447.737c-.001-1.989-.791-3.896-2.197-5.304z"/><path d="m55.854 374.418c-4.143 0-7.5 3.357-7.5 7.5v32.664c0 1.989.79 3.896 2.196 5.303l16.936 16.937c1.406 1.407 3.314 2.197 5.304 2.197h366.42c1.989 0 3.896-.79 5.304-2.196l16.937-16.937c1.406-1.407 2.196-3.314 2.196-5.304v-278.461c0-1.989-.79-3.897-2.197-5.304l-16.936-16.936c-1.407-1.406-3.314-2.196-5.304-2.196h-366.42c-1.989 0-3.897.79-5.304 2.197l-16.936 16.935c-1.406 1.407-2.196 3.314-2.196 5.304v215.811c0 4.143 3.357 7.5 7.5 7.5s7.5-3.357 7.5-7.5v-146.609h53.275c-7.966 5.976-15.306 13.545-17.813 22.239-2.068 7.173-.732 14.376 3.864 20.832 10.035 14.091 23.421 9.424 32.279 6.334 8.701-3.033 13.901-4.539 19.586-.203 8.732 6.66 17.152 10.009 25.124 10.009 2.402 0 4.765-.305 7.082-.914 4.547-1.196 8.285-3.446 11.281-5.983l.379 1.166c1.004 3.09 3.884 5.183 7.133 5.183h11.415v22.461c0 4.143 3.357 7.5 7.5 7.5s7.5-3.357 7.5-7.5v-22.461h11.416c3.249 0 6.129-2.093 7.133-5.183l7.78-23.951h12.872c4.143 0 7.5-3.357 7.5-7.5v-22.028h169.985v206.153l-12.543 12.543h-25.518v-93.484c0-4.143-3.357-7.5-7.5-7.5s-7.5 3.357-7.5 7.5v93.484h-41.244v-12.05c0-9.383-7.634-17.016-17.017-17.016h-23.509v-23.541c0-1.545-.478-3.053-1.366-4.316l-13.291-18.888c-1.064-1.512-2.649-2.577-4.451-2.992l-52.784-12.152c-2.351-.543-4.822.083-6.635 1.676l-34.557 30.38c-1.619 1.424-2.548 3.477-2.548 5.633v24.201h-23.509c-9.383 0-17.017 7.633-17.017 17.016v12.049h-41.245v-93.484c0-4.143-3.357-7.5-7.5-7.5s-7.5 3.357-7.5 7.5v93.484h-25.515l-12.542-12.543v-29.558c0-4.143-3.357-7.501-7.5-7.501zm7.5-235.191 12.542-12.542h141.064v34.108h-39.201c-4.143 0-7.5 3.357-7.5 7.5v22.029c-10.667 0-89.745 0-106.904 0v-51.095zm119.499 109.908c-5.288 1.349-11.751-.849-19.211-6.538-12.38-9.441-24.658-5.159-33.621-2.032-10.093 3.521-12.073 3.409-15.121-.872-1.953-2.742-2.469-5.199-1.673-7.968 2.897-10.071 21.413-21.235 33.319-26.402h23.713v22.028c0 4.143 3.357 7.5 7.5 7.5h12.872l2.052 6.316c-1.661 2.613-4.956 6.723-9.83 7.968zm55.074-.15h-26.933c-1.111-3.42-3.482-10.718-4.592-14.134h36.115zm25.734-29.134h-78.402v-44.058h78.402zm15-29.528v-22.029c0-4.143-3.357-7.5-7.5-7.5h-39.201v-34.108h204.144l12.543 12.542v51.096h-169.986zm-65.476 183.823 29.121-25.601 46.238 10.645 10.272 14.598v21.167h-85.632v-20.809zm-40.526 37.824c0-1.111.904-2.016 2.017-2.016h162.649c1.112 0 2.017.904 2.017 2.016v12.049h-166.683z"/></g></g></svg>